<svg width="60" height="60" viewBox="0 0 60 60" fill="none" xmlns="http://www.w3.org/2000/svg">
<g opacity="0.6">
<path d="M30.453 54.4806C44.1474 54.4806 55.2489 43.3791 55.2489 29.6847C55.2489 15.9903 44.1474 4.88879 30.453 4.88879C16.7586 4.88879 5.6571 15.9903 5.6571 29.6847C5.6571 43.3791 16.7586 54.4806 30.453 54.4806Z" fill="white"/>
<path d="M30.4529 33.8172C25.4621 33.8172 22.1504 33.2359 18.055 32.4397C17.1196 32.2592 15.2999 32.4397 15.2999 35.1948C15.2999 40.705 21.6297 47.5927 30.4529 47.5927C39.2748 47.5927 45.606 40.705 45.606 35.1948C45.606 32.4397 43.7862 32.2578 42.8509 32.4397C38.7554 33.2359 35.4438 33.8172 30.4529 33.8172Z" fill="white"/>
<path d="M18.0551 35.195C18.0551 35.195 22.1878 36.5726 30.4531 36.5726C38.7184 36.5726 42.851 35.195 42.851 35.195C42.851 35.195 40.0959 40.7052 30.4531 40.7052C20.8102 40.7052 18.0551 35.195 18.0551 35.195Z" fill="white"/>
<path d="M22.1877 28.3071C24.0897 28.3071 25.6315 26.1485 25.6315 23.4857C25.6315 20.8229 24.0897 18.6642 22.1877 18.6642C20.2857 18.6642 18.7438 20.8229 18.7438 23.4857C18.7438 26.1485 20.2857 28.3071 22.1877 28.3071Z" fill="white"/>
<path d="M38.7184 28.3071C40.6204 28.3071 42.1623 26.1485 42.1623 23.4857C42.1623 20.8229 40.6204 18.6642 38.7184 18.6642C36.8164 18.6642 35.2745 20.8229 35.2745 23.4857C35.2745 26.1485 36.8164 28.3071 38.7184 28.3071Z" fill="white"/>
</g>
<g opacity="0.4">
<path d="M30.2051 59.1918C46.5015 59.1918 59.7123 45.981 59.7123 29.6847C59.7123 13.3883 46.5015 0.177551 30.2051 0.177551C13.9088 0.177551 0.697998 13.3883 0.697998 29.6847C0.697998 45.981 13.9088 59.1918 30.2051 59.1918Z" fill="white"/>
<path d="M30.205 34.6024C24.2659 34.6024 20.325 33.9107 15.4514 32.9632C14.3383 32.7484 12.1729 32.9632 12.1729 36.2417C12.1729 42.7989 19.7054 50.9953 30.205 50.9953C40.703 50.9953 48.2371 42.7989 48.2371 36.2417C48.2371 32.9632 46.0716 32.7468 44.9586 32.9632C40.085 33.9107 36.1441 34.6024 30.205 34.6024Z" fill="white"/>
<path d="M15.4515 36.242C15.4515 36.242 20.3694 37.8813 30.2051 37.8813C40.0408 37.8813 44.9587 36.242 44.9587 36.242C44.9587 36.242 41.6801 42.7991 30.2051 42.7991C18.7301 42.7991 15.4515 36.242 15.4515 36.242Z" fill="white"/>
<path d="M20.3693 28.0454C22.6327 28.0454 24.4675 25.4766 24.4675 22.3079C24.4675 19.1391 22.6327 16.5704 20.3693 16.5704C18.1059 16.5704 16.2711 19.1391 16.2711 22.3079C16.2711 25.4766 18.1059 28.0454 20.3693 28.0454Z" fill="white"/>
<path d="M40.0409 28.0454C42.3043 28.0454 44.1391 25.4766 44.1391 22.3079C44.1391 19.1391 42.3043 16.5704 40.0409 16.5704C37.7775 16.5704 35.9427 19.1391 35.9427 22.3079C35.9427 25.4766 37.7775 28.0454 40.0409 28.0454Z" fill="white"/>
</g>
<path d="M48.3061 31.9163C48.3061 41.7761 40.3129 49.7694 30.453 49.7694C20.5932 49.7694 12.6 41.7761 12.6 31.9163C12.6 22.0564 20.5932 14.0632 30.453 14.0632C40.3129 14.0632 48.3061 22.0564 48.3061 31.9163Z" fill="#FFC076"/>
<path d="M32.4377 26.9572C32.3831 26.9572 32.3296 26.9532 32.274 26.9433C31.7335 26.853 31.3685 26.3422 31.4588 25.8017C31.8485 23.457 34.0078 19.0225 39.3796 19.0225C39.928 19.0225 40.3714 19.4668 40.3714 20.0143C40.3714 20.5618 39.928 21.0061 39.3796 21.0061C34.3262 21.0061 33.4494 25.9197 33.4147 26.129C33.3343 26.613 32.9138 26.9572 32.4377 26.9572ZM28.4684 26.9572C27.9933 26.9572 27.5737 26.615 27.4914 26.131C27.4547 25.9227 26.5442 21.0061 21.5265 21.0061C20.979 21.0061 20.5347 20.5618 20.5347 20.0143C20.5347 19.4668 20.979 19.0225 21.5265 19.0225C26.8983 19.0225 29.0565 23.457 29.4473 25.8017C29.5376 26.3422 29.1726 26.853 28.632 26.9433C28.5775 26.9532 28.5219 26.9572 28.4684 26.9572ZM23.9168 31.8092C21.6009 31.8092 20.0784 30.8204 19.9852 30.7579C19.5299 30.4544 19.4069 29.8384 19.7104 29.3822C20.0139 28.926 20.6289 28.802 21.0861 29.1075C21.1843 29.1709 23.6669 30.7301 27.0352 29.046C27.5261 28.801 28.1212 29.0003 28.3662 29.4893C28.6112 29.9793 28.4128 30.5754 27.9229 30.8204C26.4401 31.5603 25.0783 31.8092 23.9168 31.8092V31.8092ZM36.9902 31.8092C35.8278 31.8092 34.466 31.5603 32.9852 30.8194C32.4952 30.5744 32.2969 29.9783 32.5418 29.4883C32.7878 28.9984 33.3829 28.8 33.8729 29.045C37.2451 30.7311 39.7237 29.1699 39.8279 29.1035C40.2841 28.8079 40.9 28.9349 41.1986 29.3901C41.4981 29.8454 41.3761 30.4554 40.9229 30.7579C40.8276 30.8204 39.3052 31.8092 36.9902 31.8092V31.8092ZM38.3887 40.8429C38.0862 40.8429 37.7897 40.706 37.5943 40.4461C37.5695 40.4124 34.835 36.8755 30.453 36.8755C26.0721 36.8755 23.3376 40.4124 23.3098 40.4491C22.9795 40.8835 22.3567 40.9698 21.9213 40.6415C21.4848 40.3122 21.3966 39.6933 21.7249 39.2559C21.8588 39.0774 25.0594 34.8918 30.453 34.8918C35.8466 34.8918 39.0473 39.0784 39.1812 39.2559C39.5105 39.6933 39.4212 40.3152 38.9828 40.6435C38.8043 40.7784 38.596 40.8429 38.3887 40.8429V40.8429Z" fill="#664500"/>
<path d="M27.8653 33.9793C27.416 33.7859 26.8943 33.9525 26.6365 34.3661L21.6773 42.3008C21.4868 42.6073 21.4759 42.9921 21.6515 43.3075C21.8261 43.6229 22.1573 43.8183 22.5184 43.8183H25.4939C25.9491 43.8183 26.3459 43.5089 26.4559 43.0665L28.4396 35.1318C28.5577 34.6597 28.3146 34.1697 27.8653 33.9793V33.9793ZM39.2288 42.3008L34.2696 34.3661C34.0098 33.9515 33.4891 33.7869 33.0417 33.9793C32.5924 34.1697 32.3484 34.6597 32.4675 35.1318L34.4511 43.0665C34.5612 43.5089 34.957 43.8183 35.4122 43.8183H38.3877C38.7478 43.8183 39.08 43.6229 39.2556 43.3065C39.4302 42.9921 39.4202 42.6063 39.2288 42.3008V42.3008Z" fill="#F5F8FA"/>
<path d="M44.3209 43.995C44.3239 43.9354 44.3388 43.8789 44.3388 43.8184C44.3388 42.1759 43.0058 40.8429 41.3633 40.8429C40.3447 40.8429 39.447 41.3567 38.9105 42.1372C38.4443 41.9438 37.9325 41.8347 37.3959 41.8347C35.205 41.8347 33.4286 43.6111 33.4286 45.8021C33.4286 47.993 35.205 49.7694 37.3959 49.7694C38.7498 49.7694 39.943 49.088 40.6591 48.0526C41.1351 49.0642 42.1548 49.7694 43.3469 49.7694C44.9904 49.7694 46.3225 48.4374 46.3225 46.7939C46.3225 45.4926 45.4834 44.3996 44.3209 43.995ZM23.5102 41.8347C22.9726 41.8347 22.4628 41.9438 21.9957 42.1372C21.4591 41.3567 20.5615 40.8429 19.5429 40.8429C17.9004 40.8429 16.5674 42.1759 16.5674 43.8184C16.5674 43.8789 16.5812 43.9354 16.5852 43.995C15.4228 44.3996 14.5837 45.4926 14.5837 46.7939C14.5837 48.4374 15.9157 49.7694 17.5592 49.7694C18.7514 49.7694 19.772 49.0642 20.2461 48.0526C20.9632 49.088 22.1554 49.7694 23.5102 49.7694C25.7012 49.7694 27.4776 47.993 27.4776 45.8021C27.4776 43.6111 25.7012 41.8347 23.5102 41.8347Z" fill="#E1E8ED"/>
</svg>
