<svg width="29" height="29" viewBox="0 0 29 29" fill="none" xmlns="http://www.w3.org/2000/svg">
<path fill-rule="evenodd" clip-rule="evenodd" d="M14.5 2.41669C12.0465 2.41669 10.0884 3.29367 8.75827 4.81014C7.44813 6.30379 6.84722 8.30196 6.84722 10.3917V12.4861C6.84722 12.781 6.71491 13.1357 6.36992 13.5935C6.03923 14.0322 5.60993 14.4438 5.13568 14.8983L5.05532 14.9754C4.22913 15.768 3.625 16.9162 3.625 18.2861C3.625 20.143 5.07287 21.75 6.98148 21.75H22.0185C23.9271 21.75 25.375 20.143 25.375 18.2861C25.375 16.9162 24.7709 15.768 23.9447 14.9754L23.8643 14.8983L23.8643 14.8983C23.39 14.4437 22.9608 14.0322 22.6301 13.5935C22.2851 13.1357 22.1528 12.781 22.1528 12.4861V10.3917C22.1528 8.30196 21.5519 6.30379 20.2417 4.81014C18.9116 3.29367 16.9535 2.41669 14.5 2.41669Z" fill="#204553"/>
<path fill-rule="evenodd" clip-rule="evenodd" d="M11.4103 23.1631C11.9646 22.7914 12.7152 22.9394 13.0869 23.4936C13.207 23.6727 13.3936 23.8416 13.6444 23.9666C13.8956 24.0918 14.1912 24.1624 14.5 24.1624C14.8088 24.1624 15.1044 24.0918 15.3556 23.9666C15.6065 23.8416 15.793 23.6727 15.9131 23.4936C16.2848 22.9394 17.0354 22.7914 17.5897 23.1631C18.1439 23.5348 18.2919 24.2854 17.9202 24.8397C17.5491 25.393 17.0307 25.8321 16.4333 26.1297C15.8362 26.4272 15.1701 26.579 14.5 26.579C13.8299 26.579 13.1638 26.4272 12.5667 26.1297C11.9693 25.8321 11.4509 25.393 11.0798 24.8397C10.7081 24.2854 10.8561 23.5348 11.4103 23.1631Z" fill="#204553"/>
</svg>
