<svg width="60" height="60" viewBox="0 0 60 60" fill="none" xmlns="http://www.w3.org/2000/svg">
<g opacity="0.6">
<path d="M30.453 54.5663C44.1474 54.5663 55.2489 43.4648 55.2489 29.7704C55.2489 16.076 44.1474 4.97449 30.453 4.97449C16.7586 4.97449 5.6571 16.076 5.6571 29.7704C5.6571 43.4648 16.7586 54.5663 30.453 54.5663Z" fill="white"/>
<path d="M30.4529 33.903C25.4621 33.903 22.1504 33.3216 18.055 32.5254C17.1196 32.345 15.2999 32.5254 15.2999 35.2805C15.2999 40.7907 21.6297 47.6785 30.4529 47.6785C39.2748 47.6785 45.606 40.7907 45.606 35.2805C45.606 32.5254 43.7862 32.3436 42.8509 32.5254C38.7554 33.3216 35.4438 33.903 30.4529 33.903Z" fill="white"/>
<path d="M18.0551 35.2807C18.0551 35.2807 22.1878 36.6583 30.4531 36.6583C38.7184 36.6583 42.851 35.2807 42.851 35.2807C42.851 35.2807 40.0959 40.7909 30.4531 40.7909C20.8102 40.7909 18.0551 35.2807 18.0551 35.2807Z" fill="white"/>
<path d="M22.1877 28.3928C24.0897 28.3928 25.6315 26.2342 25.6315 23.5714C25.6315 20.9086 24.0897 18.7499 22.1877 18.7499C20.2857 18.7499 18.7438 20.9086 18.7438 23.5714C18.7438 26.2342 20.2857 28.3928 22.1877 28.3928Z" fill="white"/>
<path d="M38.7184 28.3928C40.6204 28.3928 42.1623 26.2342 42.1623 23.5714C42.1623 20.9086 40.6204 18.7499 38.7184 18.7499C36.8164 18.7499 35.2745 20.9086 35.2745 23.5714C35.2745 26.2342 36.8164 28.3928 38.7184 28.3928Z" fill="white"/>
</g>
<g opacity="0.4">
<path d="M30.2051 59.2776C46.5015 59.2776 59.7123 46.0668 59.7123 29.7704C59.7123 13.4741 46.5015 0.263306 30.2051 0.263306C13.9088 0.263306 0.697998 13.4741 0.697998 29.7704C0.697998 46.0668 13.9088 59.2776 30.2051 59.2776Z" fill="white"/>
<path d="M30.205 34.6882C24.2659 34.6882 20.325 33.9964 15.4514 33.0489C14.3383 32.8342 12.1729 33.0489 12.1729 36.3275C12.1729 42.8846 19.7054 51.0811 30.205 51.0811C40.703 51.0811 48.2371 42.8846 48.2371 36.3275C48.2371 33.0489 46.0716 32.8325 44.9586 33.0489C40.085 33.9964 36.1441 34.6882 30.205 34.6882Z" fill="white"/>
<path d="M15.4515 36.3277C15.4515 36.3277 20.3694 37.967 30.2051 37.967C40.0408 37.967 44.9587 36.3277 44.9587 36.3277C44.9587 36.3277 41.6801 42.8848 30.2051 42.8848C18.7301 42.8848 15.4515 36.3277 15.4515 36.3277Z" fill="white"/>
<path d="M20.3693 28.1311C22.6327 28.1311 24.4675 25.5623 24.4675 22.3936C24.4675 19.2248 22.6327 16.6561 20.3693 16.6561C18.1059 16.6561 16.2711 19.2248 16.2711 22.3936C16.2711 25.5623 18.1059 28.1311 20.3693 28.1311Z" fill="white"/>
<path d="M40.0409 28.1311C42.3043 28.1311 44.1391 25.5623 44.1391 22.3936C44.1391 19.2248 42.3043 16.6561 40.0409 16.6561C37.7775 16.6561 35.9427 19.2248 35.9427 22.3936C35.9427 25.5623 37.7775 28.1311 40.0409 28.1311Z" fill="white"/>
</g>
<path d="M47.3143 30.0183C47.3143 39.3307 39.7654 46.8796 30.4531 46.8796C21.1417 46.8796 13.5919 39.3307 13.5919 30.0183C13.5919 20.707 21.1417 13.1571 30.4531 13.1571C39.7654 13.1571 47.3143 20.707 47.3143 30.0183Z" fill="#FFC076"/>
<path d="M30.453 39.9368C34.2875 39.9368 37.3959 36.6063 37.3959 32.498C37.3959 28.3897 34.2875 25.0592 30.453 25.0592C26.6186 25.0592 23.5102 28.3897 23.5102 32.498C23.5102 36.6063 26.6186 39.9368 30.453 39.9368Z" fill="#664500"/>
<path d="M34.8846 40.3047C34.8846 40.3047 35.8735 39.5896 35.0483 38.7038C34.223 37.8181 33.4405 38.7554 33.4405 38.7554L29.3263 42.5899C29.2579 42.3865 28.8711 41.8529 28.7808 41.6506L34.4889 36.3284C34.4889 36.3284 35.4787 35.6133 34.6515 34.7266C33.8263 33.8419 33.0428 34.7772 33.0428 34.7772L27.6739 39.782C27.55 39.6253 27.2167 39.2464 27.0848 39.0897L33.3096 33.2874C33.3096 33.2874 34.2984 32.5713 33.4722 31.6866C32.647 30.8009 31.8645 31.7372 31.8645 31.7372L25.6377 37.5374C25.4889 37.3936 25.0307 36.9334 24.8799 36.7975L30.6981 31.3742C30.6981 31.3742 31.6859 30.6581 30.8607 29.7733C30.0345 28.8876 29.253 29.8239 29.253 29.8239L23.1006 35.5577L22.6076 36.0179L22.3894 36.2233C22.3894 36.2233 21.8558 36.9612 21.3113 36.4008L23.1383 32.2767C23.1383 32.2767 23.7135 31.2115 22.6493 30.6352C21.5831 30.059 21.0078 31.1242 21.0078 31.1242L19.3534 33.8597C18.6958 34.9438 18.0154 36.0199 17.2121 37.0009C14.9467 39.7711 15.0191 43.8584 17.5275 46.5513C20.2639 49.4861 24.8631 49.6478 27.7979 46.9123L28.2413 46.4977L34.8846 40.3047V40.3047Z" fill="#F4900C"/>
<path d="M23.526 19.1876C21.2894 19.7866 20.0744 21.1365 20 21.2208C19.639 21.6324 19.6797 22.2593 20.0903 22.6213C20.5019 22.9833 21.1278 22.9436 21.4898 22.531C21.5681 22.4448 23.5627 20.2964 27.2524 21.0512C27.7899 21.1613 28.3136 20.8142 28.4227 20.2786C28.5328 19.742 28.1867 19.2173 27.6501 19.1082C26.0284 18.775 24.6488 18.887 23.526 19.1876V19.1876ZM37.38 19.1886C36.2572 18.888 34.8776 18.776 33.255 19.1072C32.7184 19.2173 32.3722 19.741 32.4823 20.2776C32.5934 20.8142 33.1161 21.1603 33.6527 21.0502C37.3463 20.2945 39.3369 22.4438 39.4192 22.535C39.7832 22.9387 40.4111 22.9754 40.8177 22.6124C41.2244 22.2494 41.265 21.6295 40.905 21.2198C40.8306 21.1365 39.6156 19.7876 37.38 19.1886V19.1886Z" fill="#664500"/>
</svg>
