<svg width="60" height="60" viewBox="0 0 60 60" fill="none" xmlns="http://www.w3.org/2000/svg">
<g opacity="0.6">
<path d="M30.0592 54.7123C43.7536 54.7123 54.8551 43.6107 54.8551 29.9163C54.8551 16.2219 43.7536 5.12042 30.0592 5.12042C16.3648 5.12042 5.26324 16.2219 5.26324 29.9163C5.26324 43.6107 16.3648 54.7123 30.0592 54.7123Z" fill="white"/>
<path d="M30.0591 34.0489C25.0682 34.0489 21.7566 33.4676 17.6611 32.6714C16.7258 32.4909 14.906 32.6714 14.906 35.4265C14.906 40.9367 21.2359 47.8244 30.0591 47.8244C38.8809 47.8244 45.2121 40.9367 45.2121 35.4265C45.2121 32.6714 43.3924 32.4895 42.457 32.6714C38.3616 33.4676 35.0499 34.0489 30.0591 34.0489Z" fill="white"/>
<path d="M17.6612 35.4266C17.6612 35.4266 21.7938 36.8042 30.0592 36.8042C38.3245 36.8042 42.4571 35.4266 42.4571 35.4266C42.4571 35.4266 39.702 40.9368 30.0592 40.9368C20.4163 40.9368 17.6612 35.4266 17.6612 35.4266Z" fill="white"/>
<path d="M21.7937 28.5387C23.6957 28.5387 25.2376 26.3801 25.2376 23.7173C25.2376 21.0545 23.6957 18.8959 21.7937 18.8959C19.8917 18.8959 18.3499 21.0545 18.3499 23.7173C18.3499 26.3801 19.8917 28.5387 21.7937 28.5387Z" fill="white"/>
<path d="M38.3245 28.5387C40.2265 28.5387 41.7684 26.3801 41.7684 23.7173C41.7684 21.0545 40.2265 18.8959 38.3245 18.8959C36.4225 18.8959 34.8806 21.0545 34.8806 23.7173C34.8806 26.3801 36.4225 28.5387 38.3245 28.5387Z" fill="white"/>
</g>
<g opacity="0.4">
<path d="M29.8112 59.4235C46.1076 59.4235 59.3184 46.2127 59.3184 29.9163C59.3184 13.62 46.1076 0.40918 29.8112 0.40918C13.5149 0.40918 0.304077 13.62 0.304077 29.9163C0.304077 46.2127 13.5149 59.4235 29.8112 59.4235Z" fill="white"/>
<path d="M29.8111 34.8341C23.872 34.8341 19.9312 34.1423 15.0576 33.1948C13.9445 32.98 11.779 33.1948 11.779 36.4734C11.779 43.0305 19.3115 51.2269 29.8111 51.2269C40.3091 51.2269 47.8433 43.0305 47.8433 36.4734C47.8433 33.1948 45.6778 32.9784 44.5647 33.1948C39.6911 34.1423 35.7503 34.8341 29.8111 34.8341Z" fill="white"/>
<path d="M15.0577 36.4736C15.0577 36.4736 19.9755 38.1129 29.8112 38.1129C39.647 38.1129 44.5648 36.4736 44.5648 36.4736C44.5648 36.4736 41.2862 43.0308 29.8112 43.0308C18.3362 43.0308 15.0577 36.4736 15.0577 36.4736Z" fill="white"/>
<path d="M19.9754 28.2769C22.2387 28.2769 24.0736 25.7082 24.0736 22.5394C24.0736 19.3707 22.2387 16.8019 19.9754 16.8019C17.712 16.8019 15.8771 19.3707 15.8771 22.5394C15.8771 25.7082 17.712 28.2769 19.9754 28.2769Z" fill="white"/>
<path d="M39.647 28.2769C41.9104 28.2769 43.7452 25.7082 43.7452 22.5394C43.7452 19.3707 41.9104 16.8019 39.647 16.8019C37.3836 16.8019 35.5488 19.3707 35.5488 22.5394C35.5488 25.7082 37.3836 28.2769 39.647 28.2769Z" fill="white"/>
</g>
<path d="M29.5633 47.7694C39.4232 47.7694 47.4163 39.7763 47.4163 29.9163C47.4163 20.0563 39.4232 12.0632 29.5633 12.0632C19.7033 12.0632 11.7102 20.0563 11.7102 29.9163C11.7102 39.7763 19.7033 47.7694 29.5633 47.7694Z" fill="#FFC076"/>
<path d="M29.5633 32.8919C25.9699 32.8919 23.5855 32.4733 20.6367 31.9C19.9633 31.7701 18.6531 31.9 18.6531 33.8837C18.6531 37.8511 23.2106 42.8102 29.5633 42.8102C35.915 42.8102 40.4735 37.8511 40.4735 33.8837C40.4735 31.9 39.1633 31.7691 38.4898 31.9C35.5411 32.4733 33.1567 32.8919 29.5633 32.8919Z" fill="#664500"/>
<path d="M20.6368 33.8837C20.6368 33.8837 23.6123 34.8755 29.5633 34.8755C35.5143 34.8755 38.4898 33.8837 38.4898 33.8837C38.4898 33.8837 36.5062 37.851 29.5633 37.851C22.6205 37.851 20.6368 33.8837 20.6368 33.8837Z" fill="white"/>
<path d="M23.6123 28.9245C24.9817 28.9245 26.0919 27.3703 26.0919 25.4531C26.0919 23.5358 24.9817 21.9816 23.6123 21.9816C22.2428 21.9816 21.1327 23.5358 21.1327 25.4531C21.1327 27.3703 22.2428 28.9245 23.6123 28.9245Z" fill="#664500"/>
<path d="M35.5143 28.9245C36.8837 28.9245 37.9939 27.3703 37.9939 25.4531C37.9939 23.5358 36.8837 21.9816 35.5143 21.9816C34.1448 21.9816 33.0347 23.5358 33.0347 25.4531C33.0347 27.3703 34.1448 28.9245 35.5143 28.9245Z" fill="#664500"/>
</svg>
