<svg
    width="27"
    height="27"
    viewBox="0 0 27 27"
    fill="none"
    xmlns="http://www.w3.org/2000/svg"
>
<path
    fill-rule="evenodd"
    clip-rule="evenodd"
    d="M23.0389 8.52555L16.9796 3.51565C14.9386 1.82812 12.0614 1.82812 10.0204 3.51565L3.96109 8.52555C2.86941 9.42816 2.25 10.7967 2.25 12.2246V20.0372C2.25 22.5742 4.20092 24.75 6.75 24.75H9C10.2426 24.75 11.25 23.7426 11.25 22.5V18.8413C11.25 17.4154 12.3212 16.3786 13.5 16.3786C14.6788 16.3786 15.75 17.4154 15.75 18.8413V22.5C15.75 23.7426 16.7574 24.75 18 24.75H20.25C22.7991 24.75 24.75 22.5742 24.75 20.0372V12.2246C24.75 10.7967 24.1306 9.42816 23.0389 8.52555Z"
    fill="#5F99FF"
/>
</svg>