<svg width="319" height="352" viewBox="0 0 319 352" fill="none" xmlns="http://www.w3.org/2000/svg">
<path opacity="0.1" fill-rule="evenodd" clip-rule="evenodd" d="M143.195 4.58316C173.196 1.44021 203.52 -4.85129 231.454 6.55348C264.478 20.0365 307.332 37.9352 311.706 73.3838C316.251 110.215 266.748 129.744 250.789 163.237C238.119 189.827 249.844 225.769 229.13 246.688C207.584 268.446 173.443 267.279 143.195 271.891C106.917 277.423 65.3736 298.029 35.8851 276.153C6.37142 254.259 11.4386 208.704 8.57913 172.03C6.33599 143.262 10.6189 115.358 21.2566 88.5403C31.2827 63.265 45.0253 39.1465 67.4022 23.7395C89.4127 8.5847 116.63 7.36609 143.195 4.58316Z" fill="#FF8A00"/>
</svg>
