<svg width="60" height="60" viewBox="0 0 60 60" fill="none" xmlns="http://www.w3.org/2000/svg">
<g opacity="0.6">
<path d="M30.5225 54.5581C44.2169 54.5581 55.3184 43.4566 55.3184 29.7622C55.3184 16.0678 44.2169 4.96631 30.5225 4.96631C16.8281 4.96631 5.72656 16.0678 5.72656 29.7622C5.72656 43.4566 16.8281 54.5581 30.5225 54.5581Z" fill="white"/>
<path d="M30.5223 33.8948C25.5315 33.8948 22.2198 33.3135 18.1244 32.5172C17.189 32.3368 15.3693 32.5172 15.3693 35.2723C15.3693 40.7825 21.6991 47.6703 30.5223 47.6703C39.3442 47.6703 45.6754 40.7825 45.6754 35.2723C45.6754 32.5172 43.8556 32.3354 42.9203 32.5172C38.8248 33.3135 35.5132 33.8948 30.5223 33.8948Z" fill="white"/>
<path d="M18.1245 35.2726C18.1245 35.2726 22.2571 36.6501 30.5224 36.6501C38.7877 36.6501 42.9204 35.2726 42.9204 35.2726C42.9204 35.2726 40.1653 40.7828 30.5224 40.7828C20.8796 40.7828 18.1245 35.2726 18.1245 35.2726Z" fill="white"/>
<path d="M22.257 28.3847C24.159 28.3847 25.7009 26.2261 25.7009 23.5632C25.7009 20.9004 24.159 18.7418 22.257 18.7418C20.355 18.7418 18.8132 20.9004 18.8132 23.5632C18.8132 26.2261 20.355 28.3847 22.257 28.3847Z" fill="white"/>
<path d="M38.7877 28.3847C40.6898 28.3847 42.2316 26.2261 42.2316 23.5632C42.2316 20.9004 40.6898 18.7418 38.7877 18.7418C36.8857 18.7418 35.3439 20.9004 35.3439 23.5632C35.3439 26.2261 36.8857 28.3847 38.7877 28.3847Z" fill="white"/>
</g>
<g opacity="0.4">
<path d="M30.2745 59.2694C46.5708 59.2694 59.7816 46.0586 59.7816 29.7623C59.7816 13.4659 46.5708 0.255127 30.2745 0.255127C13.9781 0.255127 0.767334 13.4659 0.767334 29.7623C0.767334 46.0586 13.9781 59.2694 30.2745 59.2694Z" fill="white"/>
<path d="M30.2743 34.68C24.3352 34.68 20.3944 33.9882 15.5208 33.0407C14.4077 32.8259 12.2422 33.0407 12.2422 36.3192C12.2422 42.8764 19.7747 51.0728 30.2743 51.0728C40.7723 51.0728 48.3065 42.8764 48.3065 36.3192C48.3065 33.0407 46.141 32.8243 45.0279 33.0407C40.1543 33.9882 36.2135 34.68 30.2743 34.68Z" fill="white"/>
<path d="M15.5209 36.3196C15.5209 36.3196 20.4387 37.9589 30.2744 37.9589C40.1102 37.9589 45.028 36.3196 45.028 36.3196C45.028 36.3196 41.7494 42.8767 30.2744 42.8767C18.7994 42.8767 15.5209 36.3196 15.5209 36.3196Z" fill="white"/>
<path d="M20.4386 28.1229C22.702 28.1229 24.5368 25.5541 24.5368 22.3854C24.5368 19.2167 22.702 16.6479 20.4386 16.6479C18.1752 16.6479 16.3404 19.2167 16.3404 22.3854C16.3404 25.5541 18.1752 28.1229 20.4386 28.1229Z" fill="white"/>
<path d="M40.1102 28.1229C42.3736 28.1229 44.2085 25.5541 44.2085 22.3854C44.2085 19.2167 42.3736 16.6479 40.1102 16.6479C37.8469 16.6479 36.012 19.2167 36.012 22.3854C36.012 25.5541 37.8469 28.1229 40.1102 28.1229Z" fill="white"/>
</g>
<path d="M48.3755 29.0184C48.3755 38.8783 40.3823 46.8715 30.5224 46.8715C20.6626 46.8715 12.6694 38.8783 12.6694 29.0184C12.6694 19.1586 20.6626 11.1653 30.5224 11.1653C40.3823 11.1653 48.3755 19.1586 48.3755 29.0184Z" fill="#FFC076"/>
<path d="M30.5225 32.4898C21.2657 32.4898 20.1231 40.7756 20.1121 40.859C20.0913 41.0286 20.1578 41.1962 20.2897 41.3043C20.3789 41.3777 20.491 41.4164 20.6041 41.4164C20.6567 41.4164 20.7092 41.4074 20.7608 41.3916C20.8193 41.3717 26.6801 39.4327 30.5225 39.4327C36.0718 39.4327 40.1879 41.3499 40.2286 41.3688C40.3883 41.4451 40.5837 41.4283 40.7314 41.3221C40.8772 41.216 40.9556 41.0385 40.9328 40.858C40.9219 40.7756 39.7793 32.4898 30.5225 32.4898ZM41.4327 21.0837C35.924 21.0837 33.6944 16.7524 33.6021 16.5679C33.3571 16.0779 33.5555 15.4818 34.0455 15.2368C34.5344 14.9928 35.1286 15.1892 35.3745 15.6762C35.4489 15.821 37.1807 19.1 41.4327 19.1C41.9812 19.1 42.4245 19.5444 42.4245 20.0919C42.4245 20.6394 41.9812 21.0837 41.4327 21.0837ZM19.6123 21.0837C19.0648 21.0837 18.6204 20.6394 18.6204 20.0919C18.6204 19.5444 19.0648 19.1 19.6123 19.1C24.6538 19.1 25.5593 16.0055 25.596 15.8736C25.7398 15.3499 26.2824 15.0325 26.8051 15.1704C27.3307 15.3083 27.6491 15.8379 27.5172 16.3656C27.4686 16.558 26.2615 21.0837 19.6123 21.0837Z" fill="#664500"/>
<path d="M30.5224 33.9775C34.4898 33.9775 36.4735 35.9612 36.4735 35.9612H24.5714C24.5714 35.9612 26.5551 33.9775 30.5224 33.9775Z" fill="#CCD6DD"/>
<path d="M18.6214 30.0103C18.3199 30.0103 18.0224 29.8734 17.827 29.6135C17.4977 29.1761 17.587 28.5542 18.0253 28.2259C18.1672 28.1198 20.9523 26.0608 24.8254 25.3169C22.3706 24.086 19.646 24.0592 19.6113 24.0592C19.0638 24.0573 18.6204 23.6129 18.6214 23.0654C18.6214 22.5189 19.0648 22.0756 19.6123 22.0756C19.8315 22.0756 25.0198 22.1133 28.2482 25.3417C28.5319 25.6253 28.6172 26.0518 28.4634 26.4228C28.3097 26.7927 27.9477 27.0347 27.547 27.0347C22.9716 27.0347 19.2522 29.7841 19.2156 29.8119C19.037 29.9458 18.8277 30.0103 18.6214 30.0103V30.0103ZM42.4235 30.0093C42.2172 30.0093 42.0089 29.9458 41.8304 29.8129C41.7927 29.7841 38.0505 27.0347 33.498 27.0347C33.0973 27.0347 32.7343 26.7927 32.5815 26.4228C32.4278 26.0518 32.5131 25.6253 32.7968 25.3417C36.0262 22.1133 41.2135 22.0756 41.4327 22.0756C41.9802 22.0756 42.4225 22.5189 42.4235 23.0654C42.4245 23.6129 41.9812 24.0573 41.4347 24.0592C41.399 24.0592 38.6744 24.086 36.2196 25.3169C40.0927 26.0608 42.8778 28.1198 43.0186 28.2259C43.456 28.5542 43.5453 29.1741 43.218 29.6125C43.0236 29.8714 42.726 30.0093 42.4235 30.0093Z" fill="#664500"/>
</svg>
