<svg width="19" height="20" viewBox="0 0 19 20" fill="none" xmlns="http://www.w3.org/2000/svg">
<path fill-rule="evenodd" clip-rule="evenodd" d="M8.69774 0C7.29436 0 6.1567 1.13766 6.1567 2.54104C6.1567 2.74442 6.01645 3.01577 5.68124 3.19782C5.57809 3.25384 5.47636 3.3121 5.37612 3.37253C5.0418 3.57407 4.72796 3.56113 4.5437 3.4557C3.3199 2.75548 1.7604 3.17333 1.05065 4.39163L0.346233 5.60077C-0.364883 6.82141 0.0547802 8.38767 1.28093 9.08923C1.45871 9.19095 1.62585 9.44966 1.61771 9.83463C1.61655 9.88963 1.61596 9.94476 1.61596 10C1.61596 10.0553 1.61655 10.1104 1.61771 10.1654C1.62586 10.5504 1.45871 10.8091 1.28095 10.9108C0.0548135 11.6123 -0.364847 13.1786 0.346261 14.3992L1.0507 15.6084C1.76045 16.8267 3.31994 17.2445 4.54373 16.5443C4.72799 16.4389 5.04182 16.4259 5.37613 16.6275C5.47637 16.6879 5.57809 16.7462 5.68124 16.8022C6.01645 16.9842 6.1567 17.2556 6.1567 17.459C6.1567 18.8623 7.29436 20 8.69774 20H10.1564C11.5598 20 12.6974 18.8623 12.6974 17.459C12.6974 17.2556 12.8377 16.9842 13.1729 16.8022C13.2761 16.7462 13.3778 16.6879 13.478 16.6275C13.8123 16.4259 14.1262 16.4389 14.3104 16.5443C15.5342 17.2445 17.0937 16.8267 17.8034 15.6084L18.5079 14.3992C19.219 13.1786 18.7993 11.6123 17.5732 10.9108C17.3954 10.8091 17.2283 10.5504 17.2364 10.1654C17.2376 10.1104 17.2382 10.0552 17.2382 10C17.2382 9.94475 17.2376 9.88963 17.2364 9.83462C17.2283 9.44965 17.3954 9.19094 17.5732 9.08922C18.7994 8.38766 19.219 6.8214 18.5079 5.60076L17.8035 4.39162C17.0937 3.17332 15.5342 2.75547 14.3104 3.45569C14.1262 3.56113 13.8123 3.57406 13.478 3.37252C13.3778 3.31209 13.2761 3.25384 13.1729 3.19782C12.8377 3.01577 12.6974 2.74442 12.6974 2.54104C12.6974 1.13766 11.5598 0 10.1564 0H8.69774ZM9.427 7C7.77015 7 6.427 8.34315 6.427 10C6.427 11.6569 7.77015 13 9.427 13C11.0839 13 12.427 11.6569 12.427 10C12.427 8.34315 11.0839 7 9.427 7Z" fill="#224756"/>
</svg>
