<svg width="24" height="24" viewBox="0 0 24 24" fill="#5F99FF" xmlns="http://www.w3.org/2000/svg">
<path fill-rule="evenodd" clip-rule="evenodd" d="M6.58329 1.16663C3.59175 1.16663 1.16663 3.59175 1.16663 6.58329V17.4166C1.16663 20.4082 3.59175 22.8333 6.58329 22.8333H17.4166C20.4082 22.8333 22.8333 20.4082 22.8333 17.4166V6.58329C22.8333 3.59175 20.4082 1.16663 17.4166 1.16663H6.58329ZM13.457 7.08803C12.8609 5.88026 11.1386 5.88026 10.5426 7.08803L9.68845 8.81868L7.77856 9.0962C6.4457 9.28988 5.9135 10.9278 6.87796 11.868L8.25997 13.2151L7.93372 15.1172C7.70604 16.4447 9.09937 17.457 10.2915 16.8303L11.9998 15.9322L13.708 16.8303C14.9002 17.457 16.2935 16.4447 16.0658 15.1172L15.7396 13.2151L17.1216 11.868C18.086 10.9278 17.5538 9.28988 16.221 9.0962L14.3111 8.81868L13.457 7.08803Z" fill="#5F99FF" stroke="black" stroke-opacity="0"/>
</svg>
