<svg width="20" height="24" viewBox="0 0 20 24" fill="none" xmlns="http://www.w3.org/2000/svg">
<path fill-rule="evenodd" clip-rule="evenodd" d="M10 1.16663C7.0085 1.16663 4.58337 3.59175 4.58337 6.58329C4.58337 9.57483 7.0085 12 10 12C12.9916 12 15.4167 9.57483 15.4167 6.58329C15.4167 3.59175 12.9916 1.16663 10 1.16663Z" fill="#5F99FF" stroke="black" stroke-opacity="0"/>
<path fill-rule="evenodd" clip-rule="evenodd" d="M10 13.0834C5.70659 13.0834 2.94502 14.6501 1.48327 17.043C0.576041 18.5282 0.923281 20.0737 1.8508 21.1514C2.74056 22.1853 4.17415 22.8334 5.66669 22.8334H14.3334C15.8259 22.8334 17.2595 22.1853 18.1492 21.1514C19.0768 20.0737 19.424 18.5282 18.5168 17.043C17.055 14.6501 14.2934 13.0834 10 13.0834Z" fill="#5F99FF" stroke="black" stroke-opacity="0"/>
</svg>
